<svg width="44" height="44" viewBox="0 0 44 44" fill="none" xmlns="http://www.w3.org/2000/svg">
<path d="M35.5667 13.4567L30.5434 8.4334C29.9045 7.7862 29.04 7.41137 28.1309 7.38745C27.2218 7.36353 26.3387 7.69237 25.6667 8.30507L22.0001 11.9717L19.6351 9.6984C19.2898 9.35318 18.8216 9.15923 18.3334 9.15923C17.8452 9.15923 17.3769 9.35318 17.0317 9.6984C16.6865 10.0436 16.4926 10.5118 16.4926 11.0001C16.4926 11.4883 16.6865 11.9565 17.0317 12.3017L19.3051 14.6667L9.16672 24.8051C8.57413 25.4027 8.20515 26.1859 8.12172 27.0234L7.33339 34.6684C7.30869 34.9369 7.34354 35.2076 7.43543 35.4611C7.52733 35.7146 7.67403 35.9447 7.86506 36.1351C8.03636 36.305 8.23953 36.4394 8.46289 36.5306C8.68626 36.6219 8.92544 36.6681 9.16672 36.6667H9.33172L16.9767 35.9701C17.8142 35.8866 18.5975 35.5177 19.1951 34.9251L29.4251 24.6951L31.6984 26.9684C31.8688 27.1402 32.0716 27.2766 32.295 27.3697C32.5184 27.4628 32.758 27.5107 33.0001 27.5107C33.2421 27.5107 33.4817 27.4628 33.7051 27.3697C33.9285 27.2766 34.1313 27.1402 34.3017 26.9684C34.4736 26.798 34.6099 26.5952 34.703 26.3718C34.7961 26.1484 34.844 25.9088 34.844 25.6667C34.844 25.4247 34.7961 25.1851 34.703 24.9617C34.6099 24.7383 34.4736 24.5355 34.3017 24.3651L32.0284 22.0917L35.6951 18.4251C36.3355 17.7485 36.6816 16.8457 36.6575 15.9144C36.6335 14.9831 36.2412 14.0993 35.5667 13.4567ZM16.6467 32.3034L11.1467 32.8167L11.6417 27.3167L22.0001 17.1601L26.9317 22.1101L16.6467 32.3034ZM29.4801 19.4701L24.4934 14.6667L27.9951 11.0001L33.0001 16.0051L29.4801 19.4701Z" fill="#43779F"/>
</svg>
