<svg width="49" height="45" viewBox="0 0 49 45" fill="none" xmlns="http://www.w3.org/2000/svg">
<rect width="49" height="45" rx="7" fill="#48AA40"/>
<path d="M21.9682 31.4999C21.774 31.4992 21.5819 31.4587 21.404 31.3807C21.2261 31.3027 21.0661 31.189 20.934 31.0465L14.049 23.7224C13.7917 23.4481 13.6538 23.0828 13.6658 22.7069C13.6777 22.3309 13.8385 21.9752 14.1128 21.7178C14.3871 21.4604 14.7524 21.3225 15.1283 21.3345C15.5042 21.3465 15.86 21.5073 16.1174 21.7815L21.954 28.0007L33.8682 14.9674C33.9891 14.8168 34.1395 14.6926 34.3102 14.6022C34.4809 14.5119 34.6682 14.4575 34.8607 14.4422C35.0532 14.4269 35.2468 14.4511 35.4296 14.5134C35.6124 14.5757 35.7805 14.6746 35.9236 14.8042C36.0668 14.9338 36.1819 15.0913 36.262 15.2671C36.342 15.4428 36.3853 15.633 36.3892 15.8261C36.393 16.0191 36.3574 16.2109 36.2844 16.3897C36.2115 16.5685 36.1027 16.7305 35.9649 16.8657L23.0165 31.0324C22.8857 31.1774 22.7263 31.2938 22.5483 31.3742C22.3704 31.4547 22.1777 31.4974 21.9824 31.4999H21.9682Z" fill="white"/>
</svg>
