<svg width="49" height="45" viewBox="0 0 49 45" fill="none" xmlns="http://www.w3.org/2000/svg">
<rect width="49" height="45" rx="7" fill="#48AA40"/>
<path d="M21.4167 33.2915C21.0565 33.2922 20.7074 33.1667 20.43 32.9369C20.2739 32.8075 20.1449 32.6485 20.0503 32.4692C19.9557 32.2898 19.8974 32.0935 19.8788 31.8916C19.8602 31.6897 19.8816 31.4861 19.9418 31.2924C20.002 31.0988 20.0998 30.9189 20.2296 30.7632L27.1363 22.4998L20.4763 14.2211C20.3482 14.0634 20.2526 13.8819 20.1949 13.6872C20.1372 13.4924 20.1185 13.2881 20.14 13.0861C20.1615 12.8841 20.2227 12.6884 20.3201 12.5101C20.4175 12.3318 20.5492 12.1745 20.7075 12.0473C20.867 11.907 21.0538 11.8011 21.2562 11.7364C21.4586 11.6717 21.6721 11.6494 21.8835 11.6712C22.0948 11.6929 22.2994 11.758 22.4844 11.8626C22.6694 11.9671 22.8307 12.1087 22.9584 12.2786L30.4046 21.5286C30.6314 21.8044 30.7553 22.1504 30.7553 22.5075C30.7553 22.8646 30.6314 23.2106 30.4046 23.4865L22.6963 32.7365C22.5416 32.9231 22.3452 33.0705 22.1228 33.167C21.9005 33.2634 21.6586 33.3061 21.4167 33.2915Z" fill="white"/>
</svg>


