<svg width="49" height="45" viewBox="0 0 49 45" fill="none" xmlns="http://www.w3.org/2000/svg">
<g clip-path="url(#clip0_478_480)">
<path d="M42 0H7C3.13401 0 0 3.13401 0 7V38C0 41.866 3.13401 45 7 45H42C45.866 45 49 41.866 49 38V7C49 3.13401 45.866 0 42 0Z" fill="#E8A713"/>
<path d="M21.9682 31.4997C21.774 31.499 21.5819 31.4585 21.404 31.3805C21.2261 31.3025 21.0661 31.1888 20.934 31.0463L14.049 23.7222C13.7917 23.4479 13.6538 23.0826 13.6658 22.7067C13.6777 22.3307 13.8385 21.975 14.1128 21.7176C14.3871 21.4602 14.7524 21.3223 15.1283 21.3343C15.5042 21.3463 15.86 21.5071 16.1174 21.7813L21.954 28.0005L33.8682 14.9672C33.9891 14.8166 34.1395 14.6924 34.3102 14.602C34.4809 14.5117 34.6682 14.4573 34.8607 14.442C35.0532 14.4267 35.2468 14.4509 35.4296 14.5132C35.6124 14.5755 35.7805 14.6744 35.9236 14.804C36.0668 14.9336 36.1819 15.0911 36.262 15.2669C36.342 15.4426 36.3853 15.6328 36.3892 15.8259C36.393 16.0189 36.3574 16.2107 36.2844 16.3895C36.2115 16.5683 36.1027 16.7303 35.9649 16.8655L23.0165 31.0322C22.8857 31.1772 22.7263 31.2936 22.5483 31.374C22.3704 31.4545 22.1777 31.4972 21.9824 31.4997H21.9682Z" fill="white"/>
</g>
<defs>
<clipPath id="clip0_478_480">
<rect width="49" height="45" fill="white"/>
</clipPath>
</defs>
</svg>
