<svg width="49" height="45" viewBox="0 0 49 45" fill="none" xmlns="http://www.w3.org/2000/svg">
<g clip-path="url(#clip0_478_485)">
<path d="M42 0H7C3.13401 0 0 3.13401 0 7V38C0 41.866 3.13401 45 7 45H42C45.866 45 49 41.866 49 38V7C49 3.13401 45.866 0 42 0Z" fill="#E8A713"/>
<path d="M21.4165 33.2925C21.0563 33.2932 20.7072 33.1677 20.4298 32.9379C20.2737 32.8085 20.1447 32.6495 20.0501 32.4702C19.9555 32.2908 19.8972 32.0945 19.8786 31.8926C19.86 31.6907 19.8814 31.4871 19.9416 31.2934C20.0018 31.0998 20.0996 30.9199 20.2294 30.7642L27.1361 22.5008L20.4761 14.2221C20.348 14.0644 20.2524 13.8829 20.1947 13.6882C20.137 13.4934 20.1183 13.2891 20.1398 13.0871C20.1613 12.8851 20.2225 12.6894 20.3199 12.5111C20.4173 12.3328 20.549 12.1755 20.7073 12.0483C20.8668 11.908 21.0536 11.8021 21.256 11.7374C21.4584 11.6727 21.6719 11.6504 21.8833 11.6722C22.0946 11.6939 22.2992 11.759 22.4842 11.8636C22.6692 11.9681 22.8305 12.1097 22.9582 12.2796L30.4044 21.5296C30.6312 21.8054 30.7551 22.1514 30.7551 22.5085C30.7551 22.8656 30.6312 23.2116 30.4044 23.4875L22.6961 32.7375C22.5414 32.9241 22.345 33.0715 22.1226 33.168C21.9003 33.2644 21.6584 33.3071 21.4165 33.2925Z" fill="white"/>
</g>
<defs>
<clipPath id="clip0_478_485">
<rect width="49" height="45" fill="white"/>
</clipPath>
</defs>
</svg>
