<svg width="30" height="30" viewBox="0 0 30 30" fill="none" xmlns="http://www.w3.org/2000/svg">
<path d="M28.5672 6.45719L23.5439 1.43389C22.905 0.786688 22.0405 0.411858 21.1314 0.387938C20.2223 0.364018 19.3392 0.692858 18.6672 1.30556L15.0006 4.97219L12.6356 2.69889C12.2903 2.35367 11.8221 2.15972 11.3339 2.15972C10.8457 2.15972 10.3774 2.35367 10.0322 2.69889C9.68699 3.04409 9.49309 3.51229 9.49309 4.00059C9.49309 4.48879 9.68699 4.95699 10.0322 5.30219L12.3056 7.66719L2.16721 17.8056C1.57462 18.4032 1.20564 19.1864 1.12221 20.0239L0.333878 27.6689C0.309178 27.9374 0.344028 28.2081 0.435918 28.4616C0.527818 28.7151 0.674518 28.9452 0.865548 29.1356C1.03685 29.3055 1.24002 29.4399 1.46338 29.5311C1.68675 29.6224 1.92593 29.6686 2.16721 29.6672H2.33221L9.97719 28.9706C10.8147 28.8871 11.598 28.5182 12.1956 27.9256L22.4256 17.6956L24.6989 19.9689C24.8693 20.1407 25.0721 20.2771 25.2955 20.3702C25.5189 20.4633 25.7585 20.5112 26.0006 20.5112C26.2426 20.5112 26.4822 20.4633 26.7056 20.3702C26.929 20.2771 27.1318 20.1407 27.3022 19.9689C27.4741 19.7985 27.6104 19.5957 27.7035 19.3723C27.7966 19.1489 27.8445 18.9093 27.8445 18.6672C27.8445 18.4252 27.7966 18.1856 27.7035 17.9622C27.6104 17.7388 27.4741 17.536 27.3022 17.3656L25.0289 15.0922L28.6956 11.4256C29.336 10.749 29.6821 9.84619 29.658 8.91489C29.634 7.98359 29.2417 7.09979 28.5672 6.45719ZM9.64719 25.3039L4.14719 25.8172L4.64219 20.3172L15.0006 10.1606L19.9322 15.1106L9.64719 25.3039ZM22.4806 12.4706L17.4939 7.66719L20.9956 4.00059L26.0006 9.00559L22.4806 12.4706Z" fill="#D69D3A"/>
</svg>
