<svg width="44" height="44" viewBox="0 0 44 44" fill="none" xmlns="http://www.w3.org/2000/svg">
<path d="M35.5672 13.4572L30.5439 8.43389C29.905 7.78669 29.0405 7.41186 28.1314 7.38794C27.2223 7.36402 26.3392 7.69286 25.6672 8.30556L22.0006 11.9722L19.6356 9.69889C19.2903 9.35367 18.8221 9.15972 18.3339 9.15972C17.8457 9.15972 17.3774 9.35367 17.0322 9.69889C16.687 10.0441 16.4931 10.5123 16.4931 11.0006C16.4931 11.4888 16.687 11.957 17.0322 12.3022L19.3056 14.6672L9.16721 24.8056C8.57462 25.4032 8.20564 26.1864 8.12221 27.0239L7.33388 34.6689C7.30918 34.9374 7.34403 35.2081 7.43592 35.4616C7.52782 35.7151 7.67452 35.9452 7.86555 36.1356C8.03685 36.3055 8.24002 36.4399 8.46338 36.5311C8.68675 36.6224 8.92593 36.6686 9.16721 36.6672H9.33221L16.9772 35.9706C17.8147 35.8871 18.598 35.5182 19.1956 34.9256L29.4256 24.6956L31.6989 26.9689C31.8693 27.1407 32.0721 27.2771 32.2955 27.3702C32.5189 27.4633 32.7585 27.5112 33.0006 27.5112C33.2426 27.5112 33.4822 27.4633 33.7056 27.3702C33.929 27.2771 34.1318 27.1407 34.3022 26.9689C34.4741 26.7985 34.6104 26.5957 34.7035 26.3723C34.7966 26.1489 34.8445 25.9093 34.8445 25.6672C34.8445 25.4252 34.7966 25.1856 34.7035 24.9622C34.6104 24.7388 34.4741 24.536 34.3022 24.3656L32.0289 22.0922L35.6956 18.4256C36.336 17.749 36.6821 16.8462 36.658 15.9149C36.634 14.9836 36.2417 14.0998 35.5672 13.4572ZM16.6472 32.3039L11.1472 32.8172L11.6422 27.3172L22.0006 17.1606L26.9322 22.1106L16.6472 32.3039ZM29.4806 19.4706L24.4939 14.6672L27.9956 11.0006L33.0006 16.0056L29.4806 19.4706Z" fill="#E8A713"/>
</svg>
